HIERARCHY
ROOT Hips
{
	OFFSET 11.2666 35.4190 -54.3259
	CHANNELS 6 Xposition Yposition Zposition Xrotation Yrotation Zrotation
	JOINT Spine
	{
		OFFSET 0.0000 8.4730 0.0000
		CHANNELS 3 Xrotation Yrotation Zrotation
		JOINT Head
		{
			OFFSET 0.0000 13.8244 0.0000
			CHANNELS 3 Xrotation Yrotation Zrotation
			End Site
			{
				OFFSET 0.0000 4.5275 0.0000
			}
		}
		JOINT LeftShoulder
		{
			OFFSET 0.0000 9.9635 0.0000
			CHANNELS 3 Xrotation Yrotation Zrotation
			JOINT LeftArm
			{
				OFFSET 7.3084 0.0000 0.0000
				CHANNELS 3 Xrotation Yrotation Zrotation
				JOINT LeftForeArm
				{
					OFFSET 10.7061 0.0000 0.0000
					CHANNELS 3 Xrotation Yrotation Zrotation
					JOINT LeftHand
					{
						OFFSET 8.4968 0.0000 0.0000
						CHANNELS 3 Xrotation Yrotation Zrotation
						JOINT LeftHandThumb1
						{
							OFFSET 0.0000 0.0000 0.0000
							CHANNELS 3 Xrotation Yrotation Zrotation
							End Site
							{
								OFFSET 0.0000 0.0000 3.9370
							}
						}
						JOINT LeftHand_End
						{
							OFFSET 3.9370 0.0000 0.0000
							CHANNELS 3 Xrotation Yrotation Zrotation
							End Site
							{
								OFFSET 0.0000 0.0000 0.0000
							}
						}
					}
				}
			}
		}
		JOINT RightShoulder
		{
			OFFSET 0.0000 9.9635 0.0000
			CHANNELS 3 Xrotation Yrotation Zrotation
			JOINT RightArm
			{
				OFFSET -7.3084 0.0000 0.0000
				CHANNELS 3 Xrotation Yrotation Zrotation
				JOINT RightForeArm
				{
					OFFSET -10.7061 0.0000 0.0000
					CHANNELS 3 Xrotation Yrotation Zrotation
					JOINT RightHand
					{
						OFFSET -8.4968 0.0000 0.0000
						CHANNELS 3 Xrotation Yrotation Zrotation
						JOINT RightHandThumb1
						{
							OFFSET 0.0000 0.0000 0.0000
							CHANNELS 3 Xrotation Yrotation Zrotation
							End Site
							{
								OFFSET 0.0000 0.0000 3.9370
							}
						}
						JOINT RightHand_End
						{
							OFFSET -3.9370 0.0000 0.0000
							CHANNELS 3 Xrotation Yrotation Zrotation
							End Site
							{
								OFFSET 0.0000 0.0000 0.0000
							}
						}
					}
				}
			}
		}
	}
	JOINT LeftUpLeg
	{
		OFFSET 4.0316 0.0000 0.0000
		CHANNELS 3 Xrotation Yrotation Zrotation
		JOINT LeftLeg
		{
			OFFSET 0.0000 -16.7874 0.0000
			CHANNELS 3 Xrotation Yrotation Zrotation
			JOINT LeftFoot
			{
				OFFSET 0.0000 -15.4942 0.0000
				CHANNELS 3 Xrotation Yrotation Zrotation
				JOINT LeftToeBase
				{
					OFFSET 0.0000 -1.4513 5.4164
					CHANNELS 3 Xrotation Yrotation Zrotation
					End Site
					{
						OFFSET 0.0000 0.0000 2.9527
					}
				}
			}
		}
	}
	JOINT RightUpLeg
	{
		OFFSET -4.0316 0.0000 0.0000
		CHANNELS 3 Xrotation Yrotation Zrotation
		JOINT RightLeg
		{
			OFFSET 0.0000 -16.7874 0.0000
			CHANNELS 3 Xrotation Yrotation Zrotation
			JOINT RightFoot
			{
				OFFSET 0.0000 -15.4942 0.0000
				CHANNELS 3 Xrotation Yrotation Zrotation
				JOINT RightToeBase
				{
					OFFSET 0.0000 -1.4513 5.4164
					CHANNELS 3 Xrotation Yrotation Zrotation
					End Site
					{
						OFFSET 0.0000 0.0000 2.9527
					}
				}
			}
		}
	}
}
MOTION
Frames: 15
Frame Time: 0.008333
19.7676 33.1151 -36.1796 -176.1208 30.4204 177.0359 13.1552 13.9120 0.5471 -27.3078 7.4480 -15.5348 6.7584 16.3421 3.3733 5.6094 -2.0478 -87.3977 -57.1305 -64.7241 -54.4509 -0.4277 2.3311 10.3995 -0.0000 0.0000 -0.0000 -0.0000 0.0000 -0.0000 1.5020 1.2179 -29.7618 -14.0117 5.1916 93.3895 -5.3081 45.1981 3.7717 0.9109 -6.5397 7.9475 -0.0000 0.0000 -0.0000 -0.0000 0.0000 -0.0000 -21.8358 10.3073 -8.6656 27.0204 0.0000 0.0000 -6.2324 8.1291 8.0065 -9.4305 -0.0000 -0.0000 7.7843 -11.6040 -12.5163 58.2993 0.0000 -0.0000 24.5874 -4.9771 16.3991 -10.9446 -0.0000 -0.0000 
20.7463 33.9224 -38.6549 -175.8445 27.9055 176.1421 12.0635 11.8759 2.9337 -23.2552 8.5905 -16.3224 3.8119 13.8256 1.1988 -1.2386 1.7770 -89.2013 -55.7711 -60.2768 -51.9245 -0.0078 0.0255 16.9593 -0.0000 0.0000 -0.0000 -0.0000 0.0000 -0.0000 3.2874 0.9346 -26.9257 -11.1395 4.1034 92.2649 -2.5036 35.9621 1.4709 0.6050 -5.6567 6.1149 -0.0000 0.0000 -0.0000 -0.0000 0.0000 -0.0000 -14.8730 6.8375 -9.6005 23.1651 0.0000 -0.0000 -8.3512 7.8976 7.9852 -10.0984 -0.0000 -0.0000 0.2883 -8.3775 -10.9736 64.7105 0.0000 -0.0000 20.2320 -3.4206 15.2370 -10.9772 -0.0000 -0.0000 
21.7682 34.7192 -41.0612 -176.2691 25.4797 174.6416 9.8596 9.3550 6.2965 -18.5249 10.0805 -16.8950 -0.3962 10.6879 2.0663 -4.7043 0.0979 -89.3349 -44.3394 -61.6649 -40.6995 -0.1587 0.4047 21.4170 -0.0000 0.0000 -0.0000 -0.0000 0.0000 -0.0000 4.6208 1.0496 -21.9800 -7.1467 1.9269 88.6802 4.3994 28.5869 -2.1083 0.4486 -4.9626 5.1716 -0.0000 0.0000 -0.0000 -0.0000 0.0000 -0.0000 -7.3869 4.1769 -8.6795 16.7223 -0.0000 -0.0000 -9.0058 6.5173 7.3084 -10.4762 0.0000 -0.0000 -7.1579 -5.9661 -7.6570 65.5693 -0.0000 0.0000 12.5380 -5.9431 14.1847 -11.2796 -0.0000 -0.0000 
22.8304 35.2560 -43.4432 -176.9721 21.8124 173.1005 8.4537 4.8127 9.4107 -16.3469 11.3458 -16.5533 -3.7194 7.4251 3.9567 -7.6221 -2.5416 -86.6774 -1.3758 -66.1936 -1.2588 0.5409 -1.6214 18.4517 -0.0000 0.0000 -0.0000 -0.0000 0.0000 -0.0000 5.9771 -0.0689 -15.9207 -3.4683 -0.7266 83.3670 6.2400 26.8934 -2.8315 0.3814 -3.8461 5.6681 -0.0000 0.0000 -0.0000 -0.0000 0.0000 -0.0000 -0.0428 2.1776 -7.0022 10.0711 -0.0000 -0.0000 -8.3106 4.1263 8.8642 -11.4715 -0.0000 0.0000 -13.5893 -5.3143 -4.2229 61.8580 -0.0000 0.0000 3.7256 -8.8549 11.5939 -11.3941 -0.0000 0.0000 
23.8335 35.3799 -45.7831 -178.2510 16.9726 172.6299 7.7404 -0.5070 11.0217 -16.8725 12.5171 -15.0554 -5.8012 3.7225 5.5101 -12.1926 -2.2907 -81.6701 50.3250 -49.9386 42.6975 3.0584 -8.5523 19.7626 -0.0000 0.0000 -0.0000 -0.0000 0.0000 -0.0000 9.1083 -3.1074 -9.4995 -1.5407 -3.4237 77.4834 1.1801 30.9171 -0.6064 -0.0223 0.3686 3.4577 -0.0000 0.0000 -0.0000 -0.0000 0.0000 -0.0000 5.5476 0.2950 -5.8385 5.6510 0.0000 0.0000 -8.5371 3.3911 9.3338 -11.5608 -0.0000 -0.0000 -19.5120 -6.4308 -3.0457 54.7852 0.0000 -0.0000 -1.8013 -10.6766 10.0020 -11.7833 0.0000 0.0000 
24.7288 35.0594 -48.0596 -179.7055 12.5836 173.5091 7.1810 -5.3589 10.6383 -18.3038 13.6838 -12.9818 -8.2308 -0.2966 7.2641 -17.5042 -3.1319 -73.9555 50.0578 -38.7062 36.7510 2.0873 -6.2399 18.5374 -0.0000 0.0000 -0.0000 -0.0000 0.0000 -0.0000 11.4614 -6.2210 -5.0923 0.2797 -5.2858 73.7375 -3.3471 35.8455 1.9615 0.1807 4.8470 -2.1378 -0.0000 0.0000 -0.0000 -0.0000 0.0000 -0.0000 9.0068 0.1727 -5.9776 5.0895 -0.0000 -0.0000 -11.7340 3.8458 8.3947 -10.8377 0.0000 -0.0000 -25.1464 -8.2222 -4.7197 45.0553 -0.0000 0.0000 -4.1514 -10.3926 11.2402 -11.0328 -0.0000 0.0000 
25.5553 34.4115 -50.3790 179.7359 8.9667 175.2052 7.5475 -10.1436 8.5199 -20.5710 15.7882 -9.4169 -9.0914 -5.4488 9.4108 -22.4269 -2.1633 -64.7865 21.8593 -35.1078 12.9920 0.1975 -1.0276 10.8780 -0.0000 0.0000 -0.0000 -0.0000 0.0000 -0.0000 12.2245 -8.5180 -3.4296 2.7123 -5.5914 72.1572 -2.4210 40.4069 1.5699 0.8752 8.0098 -6.2565 -0.0000 0.0000 -0.0000 -0.0000 0.0000 -0.0000 12.1505 -1.3442 -6.9908 6.6822 0.0000 -0.0000 -16.1144 4.5774 10.0295 -11.1287 -0.0000 -0.0000 -29.0467 -11.1258 -8.2854 32.0801 0.0000 -0.0000 -4.5516 -8.1032 15.2500 -10.5796 0.0000 -0.0000 
26.4300 33.6149 -52.9161 -179.1868 6.8550 176.8580 9.5061 -14.9934 5.4593 -24.3933 18.4112 -3.8833 -6.4371 -8.8198 13.1642 -24.8710 -5.6541 -54.7331 21.0674 -20.6068 7.7209 0.0935 2.7877 -1.9215 -0.0000 0.0000 -0.0000 -0.0000 0.0000 -0.0000 12.9726 -9.8726 -2.3672 4.2564 -2.8438 69.6717 1.8451 45.4407 -1.3149 1.0350 9.3586 -6.3392 -0.0000 0.0000 -0.0000 -0.0000 0.0000 -0.0000 18.0646 -2.1749 -7.6292 6.7038 -0.0000 0.0000 -19.5192 4.2361 10.4754 -11.6121 -0.0000 0.0000 -29.6027 -13.1718 -11.2146 16.5410 -0.0000 -0.0000 -5.4165 -4.2689 18.1381 -10.6132 0.0000 0.0000 
27.4363 32.8133 -55.6370 -178.1161 6.7933 177.7357 10.5816 -18.5267 3.0221 -27.4166 20.8870 1.0332 -4.0533 -9.5969 17.4593 -13.2025 -16.0559 -45.0983 29.3908 -13.4501 7.4640 0.9166 3.9412 -13.1036 -0.0000 0.0000 -0.0000 -0.0000 0.0000 -0.0000 13.2688 -10.5184 -1.8276 6.4567 0.8544 65.7551 9.7412 51.3351 -7.6347 0.8507 9.7625 -5.0045 -0.0000 0.0000 -0.0000 -0.0000 0.0000 -0.0000 24.8065 0.0534 -7.3660 6.1365 -0.0000 -0.0000 -20.7251 2.5492 8.4709 -13.0307 0.0000 -0.0000 -28.9116 -13.3543 -11.6721 3.4373 0.0000 0.0000 -6.7928 -2.3942 17.9708 -10.9155 -0.0000 0.0000 
28.5213 32.1265 -58.4532 -177.7793 7.8148 177.0753 10.8062 -20.1281 3.4554 -28.4399 23.7044 2.3346 -2.3414 -7.8359 19.2900 -3.6096 -18.1661 -39.8796 26.5176 -15.9048 7.7861 1.7226 9.1784 -10.6775 -0.0000 0.0000 -0.0000 -0.0000 0.0000 -0.0000 12.2591 -11.0481 -2.6032 9.6924 3.3575 61.6618 18.3948 57.5827 -15.6811 0.8218 8.9383 -5.2749 -0.0000 0.0000 -0.0000 -0.0000 0.0000 -0.0000 28.9055 2.5122 -6.0743 9.2385 0.0000 -0.0000 -20.3453 2.7728 7.3053 -18.5051 0.0000 -0.0000 -30.4132 -8.8680 -10.5399 5.9363 -0.0000 -0.0000 -7.6116 -4.8279 20.7149 -10.3808 -0.0000 -0.0000 
29.8114 31.7167 -61.5149 -177.0295 8.5906 173.9814 11.8596 -20.2547 7.2351 -27.8694 26.1420 1.5785 -1.4249 -5.3341 19.6118 -1.8116 -13.2409 -42.1544 21.7070 -21.1685 8.1805 0.3074 3.5488 -4.9536 -0.0000 0.0000 -0.0000 -0.0000 0.0000 -0.0000 11.7296 -11.5349 -3.3311 12.1452 5.1960 57.3926 21.3751 63.3198 -19.2758 0.7846 8.0163 -5.6089 -0.0000 0.0000 -0.0000 -0.0000 0.0000 -0.0000 31.4876 6.2714 -2.4002 15.4926 0.0000 -0.0000 -15.5002 3.8056 7.6129 -30.9415 -0.0000 0.0000 -31.1000 -7.8031 -7.1909 16.5940 -0.0000 -0.0000 -6.7346 -4.2672 19.2848 -11.3124 -0.0000 -0.0000 
31.1062 31.5727 -64.7168 -176.3878 8.2654 170.9106 12.1462 -19.7151 10.6471 -26.1858 27.0239 0.7687 -0.7448 -2.8997 20.6661 0.1309 -9.8133 -48.7310 11.0472 -29.3030 5.4583 0.7197 3.7486 -10.8755 -0.0000 0.0000 -0.0000 -0.0000 0.0000 -0.0000 11.4863 -11.7991 -4.1973 14.2187 6.6856 55.3867 27.4495 66.2887 -25.4357 0.5983 7.0060 -4.8931 -0.0000 0.0000 -0.0000 -0.0000 0.0000 -0.0000 29.8796 11.6322 2.5430 26.7271 -0.0000 0.0000 -4.3809 4.8722 4.9575 -44.8547 -0.0000 0.0000 -29.4617 -7.2431 -4.2218 23.3799 0.0000 0.0000 3.8232 -3.1499 25.1812 -12.1202 0.0000 -0.0000 
32.0645 31.6962 -67.6076 -176.8117 7.5321 169.4865 11.5476 -17.7644 12.1279 -25.6873 26.2486 0.0044 -0.2582 -1.0425 21.3202 2.2823 -8.2503 -57.0158 8.9984 -37.4833 5.5043 1.1418 3.9730 -16.0477 -0.0000 0.0000 -0.0000 -0.0000 0.0000 -0.0000 10.5952 -11.6278 -4.8138 15.4077 8.5838 56.4773 31.3933 66.7043 -29.2703 0.3324 5.1772 -3.6786 -0.0000 0.0000 -0.0000 -0.0000 0.0000 -0.0000 21.2369 11.4599 6.2774 44.9070 -0.0000 0.0000 7.6400 10.9914 -2.1658 -24.9851 -0.0000 -0.0000 -29.8506 -9.2772 -3.4620 33.1033 -0.0000 -0.0000 1.7007 -1.3036 23.0658 -9.7776 0.0000 -0.0000 
32.7185 32.1085 -70.2645 -176.6473 7.0290 167.8059 12.5746 -13.7480 14.2406 -25.8424 24.4919 -1.8607 0.5690 1.3415 19.0225 3.8800 -12.5915 -63.2781 12.5844 -42.8705 8.6361 1.0263 3.8535 -14.9261 -0.0000 0.0000 -0.0000 -0.0000 0.0000 -0.0000 10.0489 -10.1393 -5.6961 14.1894 11.0362 59.8443 29.7053 65.3336 -27.4047 0.2298 3.5746 -3.6803 -0.0000 0.0000 -0.0000 -0.0000 0.0000 -0.0000 10.4316 9.2237 8.3689 63.0191 -0.0000 0.0000 9.4389 11.5627 -3.0159 -11.1585 0.0000 0.0000 -25.7620 -11.3873 -1.7891 36.1708 0.0000 0.0000 -3.7446 -0.5650 19.0343 -10.1242 -0.0000 -0.0000 
33.0651 32.8213 -72.8730 -176.2854 5.2851 167.2543 13.1978 -9.4051 14.6662 -24.9102 21.0850 -3.2370 1.5126 3.3223 14.0728 2.1927 -15.1061 -69.4633 18.5674 -43.3379 12.9817 1.1080 4.4011 -14.1455 -0.0000 0.0000 -0.0000 -0.0000 0.0000 -0.0000 10.6956 -8.1953 -4.8403 10.6420 13.5639 62.6271 23.2282 62.2984 -20.8063 0.0589 1.3270 -2.5418 -0.0000 0.0000 -0.0000 -0.0000 0.0000 -0.0000 -0.3675 6.6528 8.2268 74.3755 -0.0000 0.0000 6.8463 5.0031 -2.9740 -11.4849 -0.0000 0.0000 -18.0359 -10.0758 -0.1236 32.7635 0.0000 0.0000 -6.9026 -3.5767 17.8977 -10.1393 0.0000 -0.0000 
